<?xml version="1.0" encoding="UTF-8"?>
<svg id="Calque_2" data-name="Calque 2" xmlns="http://www.w3.org/2000/svg" xmlns:xlink="http://www.w3.org/1999/xlink" viewBox="0 0 151.15 151.21">
  <defs>
    <style>
      .cls-1 {
        fill: #5d41d1;
      }

      .cls-2 {
        fill: #9f2e63;
      }

      .cls-3 {
        fill: url(#Dégradé_sans_nom_8);
      }

      .cls-4 {
        fill: #161616;
      }
    </style>
    <linearGradient id="Dégradé_sans_nom_8" data-name="Dégradé sans nom 8" x1="84.42" y1="76.97" x2="71.62" y2="64.08" gradientUnits="userSpaceOnUse">
      <stop offset="0" stop-color="#5d41d1"/>
      <stop offset="1" stop-color="#9f2e63"/>
    </linearGradient>
  </defs>
  <g id="Calque_2-2" data-name="Calque 2">
    <g>
      <path class="cls-4" d="M115.41,151.21H23.92c-13.21,0-23.92-10.71-23.92-23.92v-50.75C25.03,70.59,23.04-2.4,46.08,.06H127.23c13.21,0,23.92,10.71,23.92,23.92l-.3,52.56c-23.04,6.08-25.48,64.04-35.44,74.67Z"/>
      <path class="cls-1" d="M137.56,76.54c-4.93,2.33-8.56,5-10.86,8-2.31,3-3.94,7.28-4.89,12.82-.58,3.57-.88,12.15-.88,25.72,0,6.73-.9,11.07-2.71,13.01-1.8,1.94-5.46,2.91-10.98,2.91h-2.47v12.2h4.46c4.56,0,7.85-.26,9.87-.78,2.97-.83,5.41-2.03,7.32-3.61,1.91-1.58,3.51-3.69,4.81-6.33,1.3-2.64,2.19-6.14,2.67-10.49,.27-2.75,.43-8.44,.48-17.09,.05-8.65,.51-14.76,1.35-18.34,.85-3.57,2.56-6.38,5.13-8.43,2.57-2.05,5.9-3.12,9.99-3.22v-6.37"/>
      <path class="cls-2" d="M0,76.54v-6.53c4.09-.11,7.41-1.21,9.99-3.3,2.57-2.1,4.28-4.97,5.13-8.63,.85-3.66,1.3-9.92,1.35-18.78,.05-8.86,.21-14.7,.48-17.51,.48-4.46,1.37-8.04,2.67-10.74,1.3-2.71,2.9-4.87,4.81-6.49,1.91-1.62,4.35-2.85,7.32-3.7C33.77,.33,37.06,.06,41.62,.06h4.46V12.56h-2.47c-5.52,0-9.18,.99-10.98,2.98-1.8,1.99-2.71,6.43-2.71,13.33,0,13.9-.29,22.68-.88,26.34-.96,5.68-2.59,10.06-4.89,13.13-2.31,3.08-5.93,5.81-10.86,8.2"/>
      <polyline class="cls-1" points="104.77 139.01 84.97 139.01 84.97 84.63 53.58 84.63 53.58 96.86 72.46 96.86 72.46 139.01 51.4 139.01 51.4 151.21 104.77 151.21"/>
      <path class="cls-3" d="M78.08,61.51c1.28,0,2.48,.23,3.58,.7,1.1,.46,2.07,1.12,2.88,1.96,.82,.84,1.46,1.8,1.92,2.88,.46,1.08,.7,2.27,.7,3.55s-.23,2.41-.7,3.52c-.46,1.11-1.11,2.08-1.92,2.92-.82,.84-1.78,1.49-2.88,1.96-1.11,.46-2.3,.7-3.58,.7s-2.48-.23-3.58-.7c-1.11-.46-2.07-1.12-2.89-1.96-.82-.84-1.46-1.81-1.92-2.92-.46-1.1-.7-2.28-.7-3.52s.23-2.46,.7-3.55c.46-1.08,1.1-2.04,1.92-2.88,.82-.84,1.78-1.49,2.89-1.96,1.1-.46,2.3-.7,3.58-.7Z"/>
    </g>
  </g>
</svg>